<svg xmlns="http://www.w3.org/2000/svg"><symbol id="star-ship-enterprise" viewBox="0 0 264.6 256"><path d="M238.7 66.6v122.8l-106.4 61.5-106.4-61.5V66.6L132.3 5.1zm-42.6 88v-39.7a1.9 1.9 0 0 0-2-2h-13.4c-1-28.7-22.4-44.4-48.4-44.4s-47.4 15.7-48.4 44.4H70.6a1.9 1.9 0 0 0-2 2v39.7a1.9 1.9 0 0 0 2 2h10.1v12.8H70.6a2 2 0 0 0 0 4h123.5a2 2 0 0 0 0-4H184v-12.8h10.1a1.9 1.9 0 0 0 2-2z"/><path d="M192 116.9v35.7H72.6v-35.7zm-9.4 24a2.2 2.2 0 0 0-2.1-2h-49.2a2 2 0 0 0 0 4h49.2a2.2 2.2 0 0 0 2.1-2z"/><path d="M180.5 138.9a2 2 0 1 1 0 4h-49.2a2 2 0 0 1 0-4zM167 156.6h12.9v12.72H167zm9.7-43.7H87.9c1-26.1 20.8-40.4 44.4-40.4s43.4 14.3 44.4 40.4zm-33.9 43.7H163v12.72h-20.2zm-16.9 0h12.9v12.72h-12.9zm-24.3 0h20.2v12.72h-20.2zm-16.9 0h12.9v12.72H84.7z"/></symbol><symbol id="rice-cooker" viewBox="0 0 259 256"><path d="M234.1 67.6v120.8l-104.6 60.4-104.6-60.4V67.6L129.5 7.2zM217 144.7a2.2 2.2 0 0 0-2-2h-14.9v-12.9a1.9 1.9 0 0 0-1.9-2h-7.8a62.5 62.5 0 0 0-60.3-48.2c-.4-.2-.6-.2-.8 0a62.8 62.8 0 0 0-60.7 48.2h-7.8a1.8 1.8 0 0 0-1.9 2v12.9H44a2.2 2.2 0 0 0-2 2 2.1 2.1 0 0 0 2 1.9h26.2v24.1a1.8 1.8 0 0 0 1.9 1.9h114.7a1.9 1.9 0 0 0 2-1.9v-24.1H215a2.1 2.1 0 0 0 2-1.9z"/><path d="M62.8 131.8h133.3v10.91H62.8zm123.4-4h-54.7V83.5a58.9 58.9 0 0 1 54.7 44.3zm-41.8 18.8h40.5v22.03h-40.5zm-12.9 0h8.9v22.03h-8.9zm-57.4 0h53.4v22.03H74.1zm53.4-58.9v40.1H98.9l28.6-40.1zm-2-4L94 127.8H72.7c6.2-24 27.4-42.5 52.8-44.1z"/></symbol><symbol id="atomic-snow-globe" viewBox="0 0 256 256"><path d="M233.5 67.1v121.8l-105.5 61-105.5-61V67.1L128 6.1zM192 170.8a2.1 2.1 0 0 0 0-2.4l-16.4-19.6h10.2a1.9 1.9 0 0 0 2-2v-14.4a1.9 1.9 0 0 0-2-2h-11.6a49.1 49.1 0 0 0 2.2-15.2 47.3 47.3 0 0 0-94.6 0 55.9 55.9 0 0 0 2.2 15.2H72.4a1.9 1.9 0 0 0-2 2v14.4a1.9 1.9 0 0 0 2 2h8.2L64 168.4a2 2 0 0 0-.3 2.4l4.7 6.6a2.2 2.2 0 0 0 2.6.6l9.6-5h94.6l9.6 5a2.1 2.1 0 0 0 2.6-.6z"/><path d="M170.4 148.8l17.6 21-2.8 3.8-34-17.8 6-7h13.2zm-96-14.4h109.5v10.41H74.4zm98-19.2a48.4 48.4 0 0 1-2.4 15.2H88.2c-2-4.6-2.4-10-2.4-15.2a43.3 43.3 0 0 1 86.6 0zm-4.8 53.8h-27.2l8.2-10 19 10zM152 148.8L135.2 169h-14.4L104 148.8h48zM107.4 159l8.2 10H88.4l19-10zm-8.6-10.2l5.8 7-33.9 17.8-2.8-4 17.7-20.8h13.2z"/></symbol></svg>